<svg width="537" height="234" viewBox="0 0 537 234" fill="none" xmlns="http://www.w3.org/2000/svg">
<path opacity="0.7" d="M519.826 184.992C519.406 186.539 518.001 188.415 514.355 190.262C510.725 192.101 505.432 193.607 498.426 194.639C484.451 196.699 464.742 196.728 440.584 194.725C392.343 190.726 327.269 178.706 256.849 159.569C186.429 140.433 124.222 117.865 80.5909 96.8984C58.7418 86.3989 41.7581 76.3985 30.7476 67.5488C25.2284 63.1127 21.4253 59.135 19.2251 55.7117C17.0152 52.2735 16.7533 49.9444 17.1737 48.3974C17.5941 46.8504 18.9987 44.9742 22.6448 43.1273C26.2751 41.2884 31.5683 39.7826 38.5736 38.75C52.5487 36.69 72.258 36.6608 96.4161 38.6637C144.657 42.6631 209.731 54.6834 280.151 73.8197C350.571 92.9561 412.778 115.524 456.409 136.491C478.258 146.99 495.242 156.991 506.252 165.84C511.772 170.276 515.575 174.254 517.775 177.677C519.985 181.116 520.247 183.445 519.826 184.992Z" stroke="url(#paint0_linear_128_2)" stroke-width="9"/>
<defs>
<linearGradient id="paint0_linear_128_2" x1="316.123" y1="13.439" x2="266.115" y2="166.691" gradientUnits="userSpaceOnUse">
<stop stop-color="#ffFF"/>
<stop offset="1" stop-color="#1793BA" stop-opacity="0"/>
</linearGradient>
</defs>
</svg>
