<?xml version="1.0" encoding="iso-8859-1"?>
<!-- Uploaded to: SVG Repo, www.svgrepo.com, Generator: SVG Repo Mixer Tools -->
<!DOCTYPE svg PUBLIC "-//W3C//DTD SVG 1.1//EN" "http://www.w3.org/Graphics/SVG/1.1/DTD/svg11.dtd">
<svg fill="#000000" version="1.1" id="Capa_1" xmlns="http://www.w3.org/2000/svg" xmlns:xlink="http://www.w3.org/1999/xlink" 
	 width="800px" height="800px" viewBox="0 0 923.579 923.579"
	 xml:space="preserve">
<g>
	<g>
		<g>
			<path d="M787.883,604.974c10.157-3.731,42.881-15.331,66.637-23.732c13.836-4.895,20.338-20.729,13.928-33.934
				c-31.982-65.888-65.434-151.61-65.434-151.61c-2.771-46.088-12.834-131.692-31.675-173.865
				c-20.17-45.158-48.688-84.812-84.522-118.788c-43.668-41.403-93.922-70.669-150.684-87.585
				C387.241-28.914,223.942,24.416,129.585,147.47c-39.3,51.252-63.597,109.053-72.864,173.106
				c-8.864,61.265-3.312,121.184,17.319,179.48c23.443,66.239,62.742,121.532,116.973,166.256l-0.507,212.158
				c-0.06,24.896,20.105,45.108,45,45.108H540.39c24.854,0,45-20.146,45-45l-0.006-68.864c2.75,0,135.624,0,135.624,0
				c18.416,0.001,34.726-11.882,40.371-29.41c5.666-17.599,12.681-43.55,17.56-62.202c3.932-15.032,5.817-30.524,5.594-46.062
				l-0.871-60.513C783.652,608.169,784.367,606.266,787.883,604.974z M620.695,284.274v18.634c0,7.711-4.357,14.761-11.254,18.21
				l-36.6,18.299c-2.279,6.641-4.964,13.093-8.017,19.333l12.943,38.831c2.438,7.315,0.535,15.381-4.918,20.834l-13.179,13.177
				l-13.176,13.177c-5.453,5.453-13.518,7.356-20.834,4.918l-38.832-12.944c-6.237,3.054-12.69,5.736-19.332,8.019L449.2,481.361
				c-3.449,6.896-10.498,11.254-18.21,11.254h-18.634h-18.634c-7.711,0-14.762-4.356-18.21-11.254l-18.3-36.599
				c-6.64-2.281-13.093-4.965-19.332-8.019l-38.832,12.944c-7.316,2.438-15.381,0.534-20.834-4.918l-13.176-13.177l-13.177-13.177
				c-5.453-5.453-7.357-13.519-4.918-20.834l12.944-38.831c-3.053-6.239-5.736-12.692-8.017-19.333l-36.599-18.299
				c-6.897-3.449-11.254-10.498-11.254-18.21v-18.634V265.64c0-7.711,4.357-14.761,11.254-18.209l36.599-18.299
				c2.281-6.641,4.964-13.093,8.017-19.333l-12.944-38.832c-2.438-7.315-0.535-15.381,4.918-20.834l13.177-13.177l13.176-13.176
				c5.453-5.453,13.518-7.357,20.834-4.918l38.832,12.944c6.239-3.054,12.692-5.736,19.332-8.018l18.3-36.599
				c3.448-6.897,10.498-11.254,18.21-11.254h18.634h18.634c7.711,0,14.761,4.356,18.21,11.254l18.298,36.599
				c6.642,2.281,13.095,4.964,19.332,8.018l38.832-12.944c7.316-2.438,15.381-0.534,20.834,4.918l13.176,13.176l13.179,13.177
				c5.453,5.453,7.356,13.519,4.918,20.834l-12.943,38.832c3.053,6.239,5.736,12.692,8.019,19.333l36.598,18.299
				c6.896,3.449,11.254,10.498,11.254,18.209V284.274L620.695,284.274z"/>
			<circle cx="412.357" cy="284.274" r="88.032"/>
		</g>
	</g>
</g>
</svg>